<?xml version="1.0" encoding="UTF-8" standalone="no"?>
<svg
   xmlns:dc="http://purl.org/dc/elements/1.1/"
   xmlns:cc="http://creativecommons.org/ns#"
   xmlns:rdf="http://www.w3.org/1999/02/22-rdf-syntax-ns#"
   xmlns:svg="http://www.w3.org/2000/svg"
   xmlns="http://www.w3.org/2000/svg"
   xmlns:sodipodi="http://sodipodi.sourceforge.net/DTD/sodipodi-0.dtd"
   xmlns:inkscape="http://www.inkscape.org/namespaces/inkscape"
   width="83.60833mm"
   height="83.60759mm"
   viewBox="0 0 315.99999 315.99719"
   version="1.1"
   id="svg6620"
   inkscape:version="1.0.1 (3bc2e813f5, 2020-09-07)"
   sodipodi:docname="Datadog_logo.svg">
  <defs
     id="defs6614" />
  <sodipodi:namedview
     id="base"
     pagecolor="#ffffff"
     bordercolor="#666666"
     borderopacity="1.0"
     inkscape:pageopacity="0.0"
     inkscape:pageshadow="2"
     inkscape:zoom="0.35"
     inkscape:cx="177.8834"
     inkscape:cy="131.45413"
     inkscape:document-units="px"
     inkscape:current-layer="layer1"
     inkscape:document-rotation="0"
     showgrid="false"
     inkscape:pagecheckerboard="true"
     inkscape:window-width="1366"
     inkscape:window-height="705"
     inkscape:window-x="-8"
     inkscape:window-y="-8"
     inkscape:window-maximized="1" />
  <metadata
     id="metadata6617">
    <rdf:RDF>
      <cc:Work
         rdf:about="">
        <dc:format>image/svg+xml</dc:format>
        <dc:type
           rdf:resource="http://purl.org/dc/dcmitype/StillImage" />
        <dc:title></dc:title>
      </cc:Work>
    </rdf:RDF>
  </metadata>
  <g
     inkscape:label="Layer 1"
     inkscape:groupmode="layer"
     id="layer1"
     transform="translate(-197.1166,-388.54587)">
    <path
       style="clip-rule:nonzero;fill:#612ba6;fill-opacity:1;fill-rule:evenodd;stroke:none;stroke-width:0.395001"
       d="m 504.36025,685.1171 v 11.04147 c -2.01976,0.52922 -3.83277,0.78691 -5.41891,0.78691 -10.71441,0 -16.06542,-5.65806 -16.06542,-16.98345 0,-10.45516 5.67814,-15.67965 17.02206,-15.67965 4.73844,0 9.1452,0.88105 13.21862,2.64466 v -7.92007 c -4.07342,-1.53524 -8.69927,-2.30982 -13.88058,-2.30982 -16.9649,0 -25.4559,7.74878 -25.4559,23.26488 0,16.37861 8.3413,24.58104 25.02235,24.58104 5.74136,0 10.5045,-0.83628 14.31413,-2.51041 v -24.6767 h -14.14594 l -2.95791,7.76114 z m -59.91349,11.82222 c 9.51703,0 14.27711,-5.48218 14.27711,-16.45423 0,-10.80231 -4.76008,-16.20887 -14.27711,-16.20887 -9.7624,0 -14.6412,5.40656 -14.6412,16.20887 0,10.97205 4.8788,16.45423 14.6412,16.45423 M 420.7082,680.68723 c 0,-15.99597 7.91849,-23.99008 23.73856,-23.99008 15.57934,0 23.36515,7.99411 23.36515,23.99008 0,15.90028 -7.78581,23.85584 -23.36515,23.85584 -15.12109,0 -23.02728,-7.95556 -23.73856,-23.85584 m -39.81481,15.92498 h 10.41197 c 9.80096,0 14.71068,-5.75989 14.71068,-17.28432 0,-9.81484 -4.90972,-14.7184 -14.71068,-14.7184 h -10.41197 z m 11.73433,7.59141 H 372.13704 V 657.0366 h 20.49068 c 14.76776,0 22.15085,7.43403 22.15085,22.29591 0,16.57456 -7.38309,24.87111 -22.15085,24.87111 m -67.29196,0 h -8.9955 l 20.06786,-47.16702 h 9.41675 l 20.4968,47.16702 h -9.42293 l -5.94971,-12.86682 h -15.13809 l 3.00268,-7.57906 h 9.8194 L 340.8966,666.03829 Z M 284.96705,657.0366 h 35.86786 v 7.58525 h -13.55345 v 39.58177 h -8.75477 v -39.58177 h -13.55964 z m -36.03137,47.16702 h -8.9955 l 20.06168,-47.16702 h 9.41674 l 20.50291,47.16702 h -9.42285 l -5.94971,-12.86682 h -15.13959 l 3.0103,-7.57906 h 9.81948 l -7.73642,-17.71945 z m -43.05655,-7.59141 h 10.40576 c 9.80712,0 14.70448,-5.75989 14.70448,-17.28432 0,-9.81484 -4.89736,-14.7184 -14.70448,-14.7184 h -10.40576 z m 11.72656,7.59141 H 197.1166 V 657.0366 h 20.48909 c 14.76156,0 22.15241,7.43403 22.15241,22.29591 0,16.57456 -7.39085,24.87111 -22.15241,24.87111"
       id="path20188" />
    <path
       style="fill:#612ba6;fill-opacity:1;fill-rule:evenodd;stroke:none;stroke-width:0.395001"
       d="m 354.40839,464.74877 c 1.68801,-1.60315 -8.41078,-3.71085 -16.2475,1.63399 -5.77991,3.94383 -5.96513,12.39467 -0.43204,17.18559 0.55518,0.47369 1.01067,0.8116 1.43654,1.08779 1.61397,-0.76068 3.45622,-1.52907 5.57472,-2.21723 3.58121,-1.16033 6.55607,-1.76361 9.0017,-2.08302 1.17111,-1.30845 2.53353,-3.61054 2.19408,-7.7812 -0.46265,-5.65806 -4.75075,-4.76159 -1.5275,-7.82592 m 53.01179,30.71896 c -0.95516,-0.52922 -5.42817,-0.31939 -8.57122,0.0537 -5.98827,0.70666 -12.45172,2.78352 -13.86818,3.88827 -2.57527,1.99044 -1.40564,5.46056 0.49846,6.88628 5.33557,3.98549 10.0123,6.65791 14.94826,6.00677 3.03037,-0.39959 5.70433,-5.19671 7.59598,-9.55097 1.2946,-2.99799 1.2946,-6.23514 -0.60293,-7.28435 m -20.44895,-35.4173 c -0.34552,0.78538 -0.88882,1.30072 -0.0746,3.86359 l 0.0523,0.1465 0.12833,0.33177 0.33951,0.76839 c 1.4658,2.99644 3.07515,5.82316 5.76605,7.26584 0.69772,-0.1157 1.41802,-0.19586 2.16328,-0.23298 2.52733,-0.11115 4.1228,0.28857 5.13342,0.83476 0.091,-0.50303 0.10957,-1.24055 0.0521,-2.32833 -0.19775,-3.79572 0.75144,-10.25149 -6.54375,-13.64757 -2.75419,-1.27757 -6.61778,-0.88412 -7.90618,0.71285 0.2358,0.0306 0.44474,0.0786 0.61114,0.13426 1.94717,0.67584 0.62832,1.34546 0.2776,2.1509 m 75.13645,52.02583 -6.28452,1.19735 -12.07066,-124.72742 -205.7008,23.85122 25.34165,205.64685 24.07809,-3.49482 c -1.92254,-2.74494 -4.9159,-6.06849 -10.03089,-10.31783 -7.09146,-5.89105 -4.58411,-15.8972 -0.39996,-22.2172 5.53308,-10.6758 34.04711,-24.24467 32.43321,-41.30836 -0.57981,-6.20429 -1.56615,-14.28174 -7.32601,-19.81636 -0.21566,2.2975 0.17315,4.50855 0.17315,4.50855 0,0 -2.36691,-3.01495 -3.54414,-7.13005 -1.1696,-1.58 -2.08768,-2.083 -3.3328,-4.18916 -0.88726,2.43789 -0.76994,5.26307 -0.76994,5.26307 0,0 -1.93493,-4.56873 -2.24812,-8.4277 -1.14648,1.72659 -1.43654,5.00693 -1.43654,5.00693 0,0 -2.51346,-7.20565 -1.94104,-11.08776 -1.14491,-3.37756 -4.54711,-10.07867 -3.58584,-25.3124 6.27832,4.39746 20.09869,3.35441 25.48365,-4.58263 1.78673,-2.62766 3.01344,-9.80248 -0.89337,-23.94223 -2.50735,-9.06648 -8.71775,-22.56746 -11.14026,-27.69011 l -0.28879,0.20825 c 1.27446,4.12744 3.90523,12.77578 4.9159,16.97112 3.05655,12.72177 3.87589,17.15011 2.43937,23.01646 -1.21894,5.09798 -4.14596,8.43388 -11.56449,12.16169 -7.41705,3.74016 -17.26429,-5.36182 -17.88611,-5.86637 -7.20877,-5.74293 -12.78507,-15.11029 -13.4069,-19.66206 -0.6462,-4.9807 2.8715,-7.97251 4.64593,-12.04441 -2.53817,0.72518 -5.36647,2.01512 -5.36647,2.01512 0,0 3.37603,-3.49482 7.54049,-6.5175 1.72657,-1.14334 2.73724,-1.86698 4.55331,-3.3791 -2.63079,-0.0432 -4.76778,0.0306 -4.76778,0.0306 0,0 4.38669,-2.36999 8.9338,-4.09658 -3.32663,-0.14808 -6.51287,-0.0247 -6.51287,-0.0247 0,0 9.79016,-4.37893 17.52352,-7.5914 5.31706,-2.18176 10.5107,-1.53526 13.43151,2.68322 3.83121,5.52844 7.85522,8.53262 16.38323,10.39342 5.23684,-2.32215 6.82613,-3.51332 13.4069,-5.3078 5.79074,-6.36936 10.33787,-7.19178 10.33787,-7.19178 0,0 -2.25432,2.06912 -2.85912,5.31861 3.28498,-2.58601 6.88314,-4.7477 6.88314,-4.7477 0,0 -1.39326,1.72041 -2.69248,4.45301 l 0.30071,0.44899 c 3.83269,-2.29748 8.33661,-4.10893 8.33661,-4.10893 0,0 -1.28685,1.62784 -2.7974,3.73398 2.89001,-0.0247 8.75022,0.12339 11.02296,0.38109 13.4254,0.29469 16.2105,-14.33726 21.36091,-16.17338 6.45116,-2.30366 9.33497,-3.69696 20.32702,7.10073 9.43219,9.26862 16.80142,25.86017 13.14147,29.57562 -3.06746,3.08285 -9.11894,-1.20351 -15.82775,-9.56331 -3.5442,-4.42833 -6.22436,-9.66208 -7.48031,-16.31381 -1.05999,-5.61486 -5.18133,-8.87053 -5.18133,-8.87053 0,0 2.39013,5.33249 2.39013,10.03084 0,2.5675 0.32087,12.16167 4.43597,17.54817 -0.4074,0.78692 -0.59694,3.89447 -1.04765,4.49006 -4.78628,-5.78614 -15.07021,-9.92592 -16.74582,-11.14795 5.67502,4.65049 18.71775,15.33093 23.72772,25.57161 4.73845,9.68059 1.94569,18.55574 4.34348,20.85323 0.68204,0.65732 10.18975,12.50576 12.01968,18.45699 3.19089,10.37491 0.19112,21.27754 -3.98543,28.04036 l -11.66487,1.81763 c -1.70495,-0.47213 -2.85753,-0.7113 -4.38511,-1.59697 0.84248,-1.49206 2.51967,-5.2137 2.53667,-5.98209 l -0.6574,-1.15415 c -3.63062,5.14117 -9.71141,10.13421 -14.76312,13.00259 -6.61159,3.74787 -14.23236,3.16927 -19.19301,1.63401 -14.07804,-4.34191 -27.39232,-13.8574 -30.60319,-16.35701 0,0 -0.0985,1.9966 0.50593,2.44561 3.54884,4.004 11.68178,11.2467 19.5432,16.29527 l -16.75968,1.84231 7.92469,61.68792 c -3.51182,0.50301 -4.0611,0.74986 -7.90619,1.29608 -3.38833,-11.97189 -9.87036,-19.79013 -16.95564,-24.34188 -6.24752,-4.01635 -14.86655,-4.92052 -23.11684,-3.28653 l -0.52905,0.61414 c 5.73524,-0.59564 12.50733,0.23296 19.46299,4.63815 6.82768,4.31724 12.32831,15.46674 14.35577,22.18019 2.59376,8.58045 4.38669,17.75803 -2.59369,27.48645 -4.96528,6.91713 -19.46298,10.73752 -31.17567,2.47029 3.12909,5.03008 7.35533,9.14518 13.04885,9.91974 8.45392,1.14799 16.47583,-0.31937 21.99661,-5.98825 4.71219,-4.84802 7.2149,-14.98223 6.5545,-25.65649 l 7.46182,-1.08163 2.69248,19.15752 123.49766,-14.87114 z m -118.25464,28.32274 15.53927,-2.13856 c 2.51345,1.13098 4.26318,1.56149 7.27659,2.32833 4.69525,1.22205 10.12962,2.39623 18.17617,-1.65867 1.87314,-0.92734 5.77381,-4.49621 7.35071,-6.52832 l 63.65828,-11.54911 6.49435,78.59882 -109.06168,19.65588 z m 90.31304,26.08543 -20.85013,-13.75249 -17.39234,29.05409 -20.22836,-5.91419 -17.81201,27.18557 0.91187,8.55575 96.84291,-17.84289 -5.62569,-60.50905 z m 0,0"
       id="path20192" />
  </g>
</svg>
